<svg width="70" height="70" viewBox="0 0 70 70" fill="none" xmlns="http://www.w3.org/2000/svg">
<path fill-rule="evenodd" clip-rule="evenodd" d="M34.9302 37.9167H35.0469C43.1013 37.9167 49.6302 31.3877 49.6302 23.3333C49.6302 15.279 43.1013 8.75 35.0469 8.75H34.9302C26.9298 8.81271 20.4636 15.3183 20.4636 23.3333C20.4636 31.3483 26.9298 37.854 34.9302 37.9167ZM46.6231 24.7917H43.7065C43.6277 26.1231 43.4411 27.4021 43.1611 28.6052H45.4565C46.0628 27.411 46.4576 26.1207 46.6231 24.7917ZM43.3565 31.5219H42.2409C42.0265 32.0513 41.7888 32.5544 41.535 33.0312C42.192 32.5909 42.8028 32.0852 43.3579 31.5219H43.3565ZM40.1525 28.6052C40.4704 27.4429 40.6921 26.161 40.784 24.7917H36.5052V28.6052H40.1525ZM36.5052 31.5219H39.034C38.9217 31.7377 38.8065 31.9448 38.6869 32.1446C37.9577 33.3565 37.2038 34.106 36.5052 34.5304V31.5219ZM33.5886 28.6052V24.7917H29.2165C29.3084 26.161 29.53 27.4429 29.8479 28.6052H33.5886ZM30.9665 31.5219H33.5886V34.5844C32.8652 34.1717 32.0748 33.4119 31.3136 32.1446C31.1915 31.9406 31.0757 31.733 30.9665 31.5219ZM26.8394 28.6052C26.5507 27.3516 26.3682 26.0759 26.294 24.7917H23.4706C23.6398 26.1479 24.0423 27.4342 24.6373 28.6052H26.8394ZM26.7373 31.5219H27.7581C27.9594 32.0148 28.1781 32.4844 28.4129 32.9306C27.8112 32.5143 27.2512 32.0427 26.7373 31.5219ZM43.7065 21.875C43.6324 20.5907 43.4499 19.315 43.1611 18.0615H45.4565C46.0633 19.2555 46.458 20.5459 46.6231 21.875H43.7065ZM43.3565 15.1448H42.2409C42.0265 14.6154 41.7888 14.1123 41.535 13.6354C42.1927 14.0773 42.8038 14.5833 43.3579 15.1448H43.3565ZM36.5052 15.1448H39.034C38.9247 14.9337 38.809 14.726 38.6869 14.5221C37.9577 13.3088 37.2038 12.5606 36.5052 12.1362V15.1448ZM40.1525 18.0615H36.5052V21.875H40.784C40.7004 20.586 40.4889 19.3086 40.1525 18.0615ZM33.5886 12.0823V15.1448H30.9665C31.0788 14.929 31.1954 14.7219 31.3136 14.5221C32.0734 13.2548 32.8652 12.4965 33.5886 12.0823ZM33.5886 18.0615H29.8479C29.53 19.2238 29.3084 20.5056 29.2165 21.875H33.5886V18.0615ZM28.4115 13.736C28.1781 14.1823 27.9594 14.6519 27.7596 15.1448H26.7373C27.2492 14.6242 27.8092 14.1531 28.4115 13.736ZM26.8394 18.0615H24.6373C24.031 19.2557 23.6362 20.5459 23.4706 21.875H26.294C26.3727 20.5421 26.5594 19.2646 26.8394 18.0615ZM12.7315 24.7917C11.2177 24.7567 9.69814 25.6856 9.20669 27.1323C9.08419 27.494 9.0171 27.9665 8.96898 28.3967C8.91794 28.8663 8.87856 29.4306 8.84794 30.0446C8.78472 31.4505 8.75215 32.8577 8.75023 34.265C8.73856 37.2079 8.81294 40.2704 8.91939 41.2198C9.10606 42.8823 10.0627 44.431 10.894 45.7785L10.9873 45.9287C11.2396 46.3371 11.489 46.744 11.734 47.1625C12.8336 49.0452 14.0294 50.314 15.1129 51.4646L15.1377 51.4894C15.7473 52.1354 16.3117 52.7362 16.844 53.4056C16.3276 53.9477 16.0403 54.668 16.0419 55.4167V58.3333C16.0419 59.1069 16.3492 59.8488 16.8962 60.3957C17.4431 60.9427 18.185 61.25 18.9586 61.25H30.6252C31.3988 61.25 32.1406 60.9427 32.6876 60.3957C33.2346 59.8488 33.5419 59.1069 33.5419 58.3333V55.4167C33.5419 54.6785 33.2619 53.9678 32.7585 53.4279C32.2552 52.8879 31.5658 52.559 30.8294 52.5073C30.6325 50.8506 30.3773 48.6135 30.354 47.9762C30.3336 47.4279 30.1498 46.8927 29.9777 46.4858C29.7971 46.0665 29.5896 45.6593 29.3565 45.2667C29.1168 44.8588 28.8599 44.4613 28.5865 44.0752L28.5296 43.9965L28.515 43.9746L28.5092 43.9673L28.5063 43.9629L28.4917 43.9425L23.7609 37.9779L23.7171 37.9342V37.9313L23.7113 37.9254L23.6763 37.8875C23.4588 37.6468 23.2496 37.3988 23.0492 37.1437C22.6029 36.5864 22.214 35.9854 21.8884 35.35C21.5559 34.6675 20.9259 34.0127 19.959 33.9646C19.135 33.9208 18.489 34.3583 18.1127 34.6952C17.9055 34.882 17.7165 35.0881 17.5484 35.3106L17.4827 34.4327L17.4754 34.3365C17.3325 32.4144 17.159 30.0883 16.5946 28.226C15.9325 26.0473 14.4611 24.834 12.73 24.7931L12.7315 24.7917ZM27.8909 52.5C27.7013 50.8958 27.465 48.8002 27.4388 48.0827C27.4335 48.0396 27.4242 47.9972 27.4111 47.9558C27.3778 47.8402 27.3374 47.7267 27.29 47.616C27.1585 47.3151 27.008 47.0229 26.8394 46.741C26.6428 46.4066 26.4321 46.0806 26.2079 45.764L26.17 45.71L21.55 39.8854L21.5238 39.8563C21.2571 39.561 21.0007 39.2565 20.7552 38.9433C20.3622 38.4452 20.0013 37.9225 19.6746 37.3785L19.6644 37.3946C19.5331 37.6381 19.4602 37.8613 19.4384 38.0071C19.3581 38.5233 19.399 38.8792 19.4398 39.0717C19.4521 39.1332 19.4692 39.1936 19.4909 39.2525V39.2569L22.1625 44.5623L19.6819 46.0775L19.6454 46.0279L19.5448 45.8894C19.0242 45.1713 18.5089 44.4494 17.999 43.7238C17.1138 42.4638 16.055 40.9179 15.5329 39.9904C15.1421 39.2977 14.9613 38.3804 14.8461 37.5506C14.7272 36.5969 14.6372 35.6398 14.5763 34.6806L14.5734 34.6485C14.4217 32.6098 14.2642 30.5944 13.8034 29.0733C13.6021 28.4098 13.3425 28.0758 13.1559 27.914C13.0217 27.7884 12.8465 27.7159 12.6629 27.7098C12.2648 27.6996 12.0009 27.9752 11.9673 28.0744C11.9644 28.0831 11.9513 28.1327 11.9323 28.2406C11.906 28.3969 11.8846 28.554 11.8681 28.7117C11.8259 29.1025 11.7894 29.6042 11.7602 30.1904C11.7 31.5517 11.6694 32.9141 11.6684 34.2767C11.6552 37.2502 11.7354 40.1421 11.82 40.8946C11.925 41.8352 12.5113 42.84 13.4709 44.3975L13.4752 44.4048C13.7231 44.8073 13.99 45.2404 14.254 45.6925C15.1771 47.2733 16.1717 48.3335 17.2611 49.4885L17.2859 49.5148C18.0967 50.3752 18.9775 51.3085 19.8088 52.5H27.8909ZM20.1252 36.8171C20.1252 36.8171 20.1194 36.8185 20.1092 36.8273C20.1149 36.8246 20.1203 36.8211 20.1252 36.8171ZM30.6252 58.3333V55.4167H18.9586V58.3333H30.6252ZM60.7938 27.1323C60.3009 25.6856 58.7827 24.7567 57.269 24.7931C55.5394 24.834 54.0679 26.0473 53.4059 28.226C52.8415 30.0883 52.6679 32.4144 52.525 34.3365L52.5177 34.4327L52.4521 35.3106C52.2771 35.0817 52.0875 34.8731 51.8877 34.6952C51.5115 34.3598 50.8669 33.9223 50.0415 33.9631C49.0746 34.0127 48.4446 34.6675 48.1121 35.3485C47.7859 35.984 47.3965 36.5849 46.9498 37.1423C46.7495 37.3979 46.5403 37.6464 46.3227 37.8875L46.2892 37.9254L46.2834 37.9327L46.2396 37.9779L41.5102 43.9425L41.4942 43.9629L41.4913 43.9673L41.4869 43.9746L41.4709 43.9965C41.176 44.4065 40.9001 44.8299 40.644 45.2652C40.4104 45.6583 40.2024 46.066 40.0213 46.4858C39.8506 46.8927 39.6669 47.4279 39.6465 47.9762C39.6231 48.6135 39.3694 50.8506 39.1711 52.5073C38.4347 52.559 37.7453 52.8879 37.2419 53.4279C36.7385 53.9678 36.4586 54.6785 36.4586 55.4167V58.3333C36.4586 59.1069 36.7659 59.8488 37.3128 60.3957C37.8598 60.9427 38.6017 61.25 39.3752 61.25H51.0419C51.8154 61.25 52.5573 60.9427 53.1043 60.3957C53.6513 59.8488 53.9586 59.1069 53.9586 58.3333V55.4167C53.9591 54.6675 53.6714 53.9469 53.155 53.4042C53.6888 52.7362 54.2517 52.1354 54.8613 51.4894L54.8861 51.4631C55.9696 50.314 57.1654 49.0452 58.265 47.1625C58.51 46.744 58.7609 46.3385 59.0117 45.9287L59.105 45.7785C59.9363 44.431 60.8929 42.8823 61.0796 41.2198C61.1861 40.2704 61.2604 37.2079 61.2488 34.265C61.2473 32.8577 61.2152 31.4505 61.1525 30.0446C61.1277 29.4942 61.0873 28.9447 61.0315 28.3967C60.9848 27.9665 60.9177 27.4925 60.7938 27.1323ZM50.1931 52.5C51.0244 51.3085 51.9038 50.3752 52.7161 49.5148L52.7394 49.4885C53.8288 48.3335 54.8248 47.2719 55.7465 45.6925C56.009 45.2404 56.2758 44.8088 56.5252 44.4048L56.5296 44.3975C57.4906 42.84 58.0754 41.8352 58.1804 40.8946C58.265 40.1421 58.3438 37.2502 58.3321 34.2767C58.3263 32.8096 58.2986 31.36 58.2402 30.1904C58.2111 29.6042 58.1746 29.1025 58.1323 28.7117C58.1158 28.554 58.0945 28.3969 58.0681 28.2406C58.0592 28.1847 58.0475 28.1292 58.0331 28.0744C57.9996 27.9752 57.7356 27.6996 57.339 27.7098C57.1549 27.7155 56.9791 27.7881 56.8446 27.914C56.6579 28.0744 56.3983 28.4098 56.1971 29.0733C55.7363 30.5929 55.5788 32.6098 55.4271 34.6485L55.4242 34.6806C55.3513 35.6781 55.2754 36.6844 55.1544 37.5506C55.0406 38.3804 54.8584 39.2977 54.469 39.9919C53.9454 40.9179 52.8867 42.4637 52.0015 43.7252C51.4915 44.4504 50.9762 45.1718 50.4556 45.8894L50.3536 46.0279L50.3186 46.0775L47.8379 44.5608L50.5081 39.2569L50.5096 39.2525C50.5312 39.1936 50.5483 39.1332 50.5606 39.0717C50.6015 38.8792 50.6423 38.5233 50.5621 38.0071C50.5205 37.792 50.4442 37.5851 50.3361 37.3946L50.3259 37.3785C49.9671 37.9838 49.5719 38.5262 49.2467 38.9419C49.0008 39.2556 48.744 39.5606 48.4767 39.8563L48.449 39.8854L43.8304 45.71L43.7925 45.764C43.5684 46.0806 43.3577 46.4066 43.1611 46.741C42.9861 47.0385 42.8256 47.3433 42.7104 47.616C42.6536 47.7517 42.6142 47.864 42.5894 47.9544C42.5763 47.9962 42.567 48.0392 42.5617 48.0827C42.5354 48.8002 42.2992 50.8973 42.1096 52.5H50.1931ZM49.8752 36.8171C49.8752 36.8171 49.8811 36.8185 49.8913 36.8273C49.8855 36.8245 49.8802 36.8211 49.8752 36.8171ZM39.3752 58.3333V55.4167H51.0419V58.3333H39.3752Z" fill="black"/>
</svg>
