<svg width="28" height="22" viewBox="0 0 28 22" fill="none" xmlns="http://www.w3.org/2000/svg">
<g clip-path="url(#clip0_10_1233)">
<path opacity="0.35" d="M23.6975 14.7945C22.3407 13.7584 18.9602 11.6367 14.0002 11.6367C9.04012 11.6367 5.65962 13.7584 4.30283 14.7945C3.24769 15.4742 2.5451 16.6528 2.5451 18.0006C2.5451 20.1096 4.25446 21.819 6.36347 21.819C8.47247 21.819 10.1818 20.1096 10.1818 18.0006V16.6553H17.8185V18.0006C17.8185 20.1096 19.5279 21.819 21.6369 21.819C23.7459 21.819 25.4552 20.1096 25.4552 18.0006C25.4552 16.6528 24.7526 15.4742 23.6975 14.7945Z" fill="white"/>
<path d="M17.8172 1.03425C18.2881 0.218393 19.3306 -0.0603466 20.1464 0.410583C20.9623 0.881513 21.241 1.92392 20.7701 2.73978C20.6135 3.00961 19.2211 5.42281 19.0645 5.69264C18.5936 6.50849 17.5512 6.78723 16.7354 6.3163C15.9195 5.84537 15.6408 4.80296 16.1117 3.98711C16.2682 3.71728 17.6619 1.30408 17.8172 1.03425Z" fill="white"/>
<path d="M25.4419 5.5021C26.2577 5.03117 27.3002 5.31118 27.7711 6.12576C28.242 6.94162 27.962 7.98403 27.1474 8.45496C26.8776 8.61151 24.4644 10.0039 24.1946 10.1604C23.3787 10.6314 22.3363 10.3514 21.8654 9.53682C21.3944 8.72224 21.6744 7.67856 22.489 7.20763C22.7589 7.05108 25.1721 5.65738 25.4419 5.5021Z" fill="white"/>
<path d="M10.1813 1.03425C9.71041 0.218393 8.66673 -0.0603466 7.85215 0.410583C7.03756 0.881513 6.75755 1.92392 7.22848 2.73978C7.38503 3.00961 8.77746 5.42281 8.93401 5.69264C9.40494 6.50849 10.4474 6.78723 11.2632 6.3163C12.0791 5.84537 12.3578 4.80296 11.8869 3.98711C11.7303 3.71728 10.3366 1.30408 10.1813 1.03425Z" fill="white"/>
<path d="M2.55786 5.5021C1.74201 5.03117 0.699595 5.31118 0.228665 6.12576C-0.242265 6.94162 0.0377473 7.98403 0.852329 8.45496C1.12216 8.61151 3.53536 10.0039 3.80519 10.1604C4.62105 10.6314 5.66346 10.3514 6.13439 9.53682C6.60532 8.72097 6.3253 7.67856 5.51072 7.20763C5.24089 7.05108 2.82769 5.65738 2.55786 5.5021Z" fill="white"/>
</g>
<defs>
<clipPath id="clip0_10_1233">
<rect width="28" height="22" fill="white"/>
</clipPath>
</defs>
</svg>
