<svg width="30" height="30" viewBox="0 0 30 30" fill="none" xmlns="http://www.w3.org/2000/svg">
<path opacity="0.5" d="M22.5 10L23.6862 10.395C24.9237 10.8075 25.5425 11.0138 25.8962 11.505C26.25 11.9963 26.25 12.6487 26.25 13.9525V21.0363C26.25 22.6488 26.25 23.4563 25.825 23.975C25.6812 24.15 25.5062 24.3 25.3087 24.4125C24.7275 24.7463 23.9312 24.6125 22.34 24.3488C20.77 24.0863 19.985 23.9562 19.2062 24.0212C18.933 24.0434 18.6616 24.0839 18.3938 24.1425C17.6313 24.31 16.9125 24.6687 15.4762 25.3875C13.6012 26.325 12.6638 26.7937 11.6663 26.9375C11.3663 26.9812 11.0625 27.0025 10.7588 27.0025C9.75 27 8.765 26.6713 6.79375 26.015L6.31375 25.855C5.07625 25.4425 4.4575 25.2362 4.10375 24.745C3.75 24.2537 3.75 23.6 3.75 22.2975V16.135C3.75 14.0612 3.75 13.025 4.36 12.4675C4.46688 12.3696 4.58475 12.2845 4.71125 12.2137C5.43375 11.8112 6.4175 12.1388 8.38375 12.795" stroke="#F8F8F8" stroke-width="2.375"/>
<path d="M7.5 9.625C7.5 5.69 10.8575 2.5 15 2.5C19.1425 2.5 22.5 5.69 22.5 9.625C22.5 13.53 20.1063 18.0863 16.3713 19.715C15.9385 19.9028 15.4718 19.9998 15 19.9998C14.5282 19.9998 14.0615 19.9028 13.6287 19.715C9.89375 18.0875 7.5 13.53 7.5 9.625Z" stroke="#F8F8F8" stroke-width="2.375"/>
<path d="M15.1316 12.8947C16.5123 12.8947 17.6316 11.7754 17.6316 10.3947C17.6316 9.01394 16.5123 7.89465 15.1316 7.89465C13.7509 7.89465 12.6316 9.01394 12.6316 10.3947C12.6316 11.7754 13.7509 12.8947 15.1316 12.8947Z" stroke="#F8F8F8" stroke-width="2.375"/>
</svg>
