<svg width="24" height="23" viewBox="0 0 24 23" fill="none" xmlns="http://www.w3.org/2000/svg">
<path d="M19.1828 0.459187H5.17773C2.85813 0.459187 0.976196 2.34112 0.976196 4.66072V18.6658C0.976196 20.9854 2.85813 22.8673 5.17773 22.8673H12.9389V14.1871H10.0212V10.8025H12.9389V8.30788C12.9389 5.41933 14.7187 3.84375 17.3009 3.84375C18.5263 3.84375 19.5913 3.93128 19.8977 3.97505V6.9949L18.1179 7.00949C16.7028 7.00949 16.4402 7.66598 16.4402 8.64342V10.8025H19.781L19.3433 14.1871H16.4402V22.8673H19.1828C21.5024 22.8673 23.3844 20.9854 23.3844 18.6658V4.66072C23.3844 2.34112 21.5024 0.459187 19.1828 0.459187Z" fill="#52246D"/>
</svg>
