<svg width="34" height="23" viewBox="0 0 34 23" fill="none" xmlns="http://www.w3.org/2000/svg">
<path d="M21.1067 11.9113C21.1067 11.211 21.0338 10.6712 20.9317 10.1315H10.8363V13.8078H16.9052C16.6572 15.3688 15.067 18.4178 10.8363 18.4178C7.18917 18.4178 4.21308 15.398 4.21308 11.6633C4.21308 7.92857 7.18917 4.90872 10.8363 4.90872C12.9225 4.90872 14.3084 5.79863 15.0962 6.55724L17.9994 3.77081C16.132 2.02017 13.7249 0.969789 10.8363 0.969789C4.92793 0.969789 0.142853 5.75486 0.142853 11.6633C0.142853 17.5717 4.92793 22.3567 10.8363 22.3567C17.0073 22.3567 21.1067 18.0239 21.1067 11.9113ZM33.7551 10.1315H30.7061V7.08243H27.6425V10.1315H24.5934V13.1951H27.6425V16.2441H30.7061V13.1951H33.7551V10.1315Z" fill="#52246D"/>
</svg>
