<svg width="24" height="19" viewBox="0 0 24 19" fill="none" xmlns="http://www.w3.org/2000/svg">
<path d="M23.6336 2.544C22.7875 2.90872 21.8684 3.17132 20.9201 3.27344C21.8976 2.68989 22.6416 1.77081 22.9917 0.676658C22.0872 1.21644 21.066 1.61033 20.001 1.81457C19.1403 0.895488 17.9149 0.326531 16.5581 0.326531C13.9467 0.326531 11.846 2.44188 11.846 5.03866C11.846 5.40338 11.8897 5.7681 11.9627 6.11822C8.05293 5.91398 4.56625 4.04664 2.24665 1.18726C1.83817 1.88751 1.60475 2.68989 1.60475 3.56521C1.60475 5.19914 2.4363 6.64341 3.70552 7.48956C2.93232 7.46038 2.20289 7.24155 1.57557 6.89142C1.57557 6.90601 1.57557 6.93519 1.57557 6.94978C1.57557 9.24019 3.19491 11.1367 5.35403 11.5744C4.96014 11.6765 4.53707 11.7349 4.114 11.7349C3.80764 11.7349 3.51586 11.7057 3.22409 11.6619C3.82223 13.5293 5.55827 14.886 7.62986 14.9298C6.01052 16.199 3.9827 16.943 1.77982 16.943C1.38592 16.943 1.02121 16.9284 0.641901 16.8846C2.72808 18.2268 5.20815 19 7.87787 19C16.5435 19 21.2848 11.8224 21.2848 5.59303C21.2848 5.38879 21.2848 5.18455 21.2702 4.98031C22.1893 4.30923 22.9917 3.47768 23.6336 2.544Z" fill="#52246D"/>
</svg>
